<svg viewBox="0 0 720 400" xmlns="http://www.w3.org/2000/svg">
<defs>
<marker id="arrow" markerWidth="8" markerHeight="8" refX="6" refY="3" orient="auto">
<path d="M0,0 L6,3 L0,6 Z" fill="#333"/>
</marker>
</defs>
<rect x="0" y="0" width="720" height="400" fill="#ffffff"/>
<line x1="70.00" y1="300.00" x2="305.00" y2="300.00" stroke="#333" stroke-width="1.5" marker-end="url(#arrow)"/>
<line x1="70.00" y1="300.00" x2="70.00" y2="65.00" stroke="#333" stroke-width="1.5" marker-end="url(#arrow)"/>
<text x="312.00" y="305.00" font-size="14" fill="#333">x</text>
<text x="52.00" y="62.00" font-size="14" fill="#333">y</text>
<text x="56.00" y="316.00" font-size="13" fill="#333">O</text>
<polyline points="70.00,278.00 75.50,277.92 81.00,277.69 86.50,277.31 92.00,276.77 97.50,276.07 103.00,275.23 108.50,274.23 114.00,273.07 119.50,271.76 125.00,270.30 130.50,268.68 136.00,266.91 141.50,264.99 147.00,262.91 152.50,260.68 158.00,258.29 163.50,255.75 169.00,253.05 174.50,250.20 180.00,247.20 185.50,244.04 191.00,240.73 196.50,237.27 202.00,233.65 207.50,229.88 213.00,225.95 218.50,221.87 224.00,217.63 229.50,213.24 235.00,208.70 240.50,204.00 246.00,199.15 251.50,194.15 257.00,188.99 262.50,183.68 268.00,178.21 273.50,172.59 279.00,166.81 284.50,160.88 290.00,154.80" fill="none" stroke="#2563eb" stroke-width="2.5"/>
<line x1="136.00" y1="300.00" x2="136.00" y2="266.91" stroke="#999" stroke-width="1" stroke-dasharray="4,3"/>
<line x1="70.00" y1="266.91" x2="136.00" y2="266.91" stroke="#999" stroke-width="1" stroke-dasharray="4,3"/>
<circle cx="136.00" cy="266.91" r="3.5" fill="#2563eb"/>
<line x1="246.00" y1="300.00" x2="246.00" y2="199.15" stroke="#999" stroke-width="1" stroke-dasharray="4,3"/>
<line x1="70.00" y1="199.15" x2="246.00" y2="199.15" stroke="#999" stroke-width="1" stroke-dasharray="4,3"/>
<circle cx="246.00" cy="199.15" r="3.5" fill="#2563eb"/>
<text x="136.00" y="322.00" font-size="13" fill="#333" text-anchor="middle">x&#8321;</text>
<text x="246.00" y="322.00" font-size="13" fill="#333" text-anchor="middle">x&#8322;</text>
<text x="58.00" y="270.91" font-size="12" fill="#2563eb" text-anchor="end">f(x&#8321;)</text>
<text x="58.00" y="203.15" font-size="12" fill="#2563eb" text-anchor="end">f(x&#8322;)</text>
<text x="180.00" y="355.00" font-size="15" fill="#333" text-anchor="middle" font-weight="bold">增函数：x&#8321;&lt;x&#8322; &#8658; f(x&#8321;)&lt;f(x&#8322;)</text>
<line x1="430.00" y1="300.00" x2="665.00" y2="300.00" stroke="#333" stroke-width="1.5" marker-end="url(#arrow)"/>
<line x1="430.00" y1="300.00" x2="430.00" y2="65.00" stroke="#333" stroke-width="1.5" marker-end="url(#arrow)"/>
<text x="672.00" y="305.00" font-size="14" fill="#333">x</text>
<text x="412.00" y="62.00" font-size="14" fill="#333">y</text>
<text x="416.00" y="316.00" font-size="13" fill="#333">O</text>
<polyline points="430.00,102.00 435.50,102.08 441.00,102.31 446.50,102.69 452.00,103.23 457.50,103.93 463.00,104.77 468.50,105.77 474.00,106.93 479.50,108.24 485.00,109.70 490.50,111.32 496.00,113.09 501.50,115.01 507.00,117.09 512.50,119.32 518.00,121.71 523.50,124.25 529.00,126.95 534.50,129.80 540.00,132.80 545.50,135.96 551.00,139.27 556.50,142.73 562.00,146.35 567.50,150.12 573.00,154.05 578.50,158.13 584.00,162.37 589.50,166.76 595.00,171.30 600.50,176.00 606.00,180.85 611.50,185.85 617.00,191.01 622.50,196.32 628.00,201.79 633.50,207.41 639.00,213.19 644.50,219.12 650.00,225.20" fill="none" stroke="#dc2626" stroke-width="2.5"/>
<line x1="496.00" y1="300.00" x2="496.00" y2="113.09" stroke="#999" stroke-width="1" stroke-dasharray="4,3"/>
<line x1="430.00" y1="113.09" x2="496.00" y2="113.09" stroke="#999" stroke-width="1" stroke-dasharray="4,3"/>
<circle cx="496.00" cy="113.09" r="3.5" fill="#dc2626"/>
<line x1="606.00" y1="300.00" x2="606.00" y2="180.85" stroke="#999" stroke-width="1" stroke-dasharray="4,3"/>
<line x1="430.00" y1="180.85" x2="606.00" y2="180.85" stroke="#999" stroke-width="1" stroke-dasharray="4,3"/>
<circle cx="606.00" cy="180.85" r="3.5" fill="#dc2626"/>
<text x="496.00" y="322.00" font-size="13" fill="#333" text-anchor="middle">x&#8321;</text>
<text x="606.00" y="322.00" font-size="13" fill="#333" text-anchor="middle">x&#8322;</text>
<text x="418.00" y="117.09" font-size="12" fill="#dc2626" text-anchor="end">f(x&#8321;)</text>
<text x="418.00" y="184.85" font-size="12" fill="#dc2626" text-anchor="end">f(x&#8322;)</text>
<text x="540.00" y="355.00" font-size="15" fill="#333" text-anchor="middle" font-weight="bold">减函数：x&#8321;&lt;x&#8322; &#8658; f(x&#8321;)&gt;f(x&#8322;)</text>
</svg>