<?xml version="1.0" encoding="UTF-8"?>
<svg xmlns="http://www.w3.org/2000/svg" viewBox="0 0 660 330" width="660" height="330" font-family="PingFang SC, Microsoft YaHei, sans-serif">
  <rect x="0" y="0" width="660" height="330" fill="#ffffff"/>
  <text x="330" y="30" text-anchor="middle" font-size="16" fill="#212529">圆的切线</text>
  <circle cx="170.0" cy="170.0" r="80.0" fill="none" stroke="#1c7ed6" stroke-width="2.2"/>
  <line x1="170.0" y1="170.0" x2="235.5" y2="124.1" stroke="#2f9e44" stroke-width="2.4"/>
  <line x1="189.6" y1="58.6" x2="281.4" y2="189.6" stroke="#e03131" stroke-width="2.6"/>
  <polyline points="229.2,115.1 220.2,121.4 226.5,130.4" fill="none" stroke="#2f9e44" stroke-width="1.6"/>
  <circle cx="170.0" cy="170.0" r="3.8" fill="#212529"/><circle cx="235.5" cy="124.1" r="4.2" fill="#e03131"/>
  <text x="154" y="186" text-anchor="middle" font-size="13" fill="#212529">O</text><text x="249" y="119" text-anchor="middle" font-size="14" fill="#e03131">P</text>
  <text x="170" y="300" text-anchor="middle" font-size="15" fill="#212529">切线垂直于过切点的半径</text>

  <circle cx="470.0" cy="160.0" r="78.0" fill="none" stroke="#1c7ed6" stroke-width="2.2"/>
  <line x1="470.0" y1="160.0" x2="417.8" y2="218.0" stroke="#2f9e44" stroke-width="2.2" stroke-dasharray="5 4"/><line x1="470.0" y1="160.0" x2="546.5" y2="175.0" stroke="#2f9e44" stroke-width="2.2" stroke-dasharray="5 4"/>
  <line x1="520.0" y1="310.0" x2="417.8" y2="218.0" stroke="#e03131" stroke-width="2.6"/><line x1="520.0" y1="310.0" x2="546.5" y2="175.0" stroke="#e03131" stroke-width="2.6"/>
  <line x1="470.0" y1="160.0" x2="520.0" y2="310.0" stroke="#868e96" stroke-width="1.6" stroke-dasharray="5 4"/>
  
  <line x1="474.8" y1="261.2" x2="466.7" y2="270.1" stroke="#e03131" stroke-width="1.8"/>
  <line x1="471.1" y1="257.8" x2="463.0" y2="266.8" stroke="#e03131" stroke-width="1.8"/>
  <line x1="538.7" y1="246.1" x2="526.9" y2="243.8" stroke="#e03131" stroke-width="1.8"/>
  <line x1="539.6" y1="241.2" x2="527.9" y2="238.9" stroke="#e03131" stroke-width="1.8"/>
  <circle cx="470.0" cy="160.0" r="3.8" fill="#212529"/><circle cx="520.0" cy="310.0" r="4.2" fill="#e03131"/><circle cx="417.8" cy="218.0" r="3.6" fill="#e03131"/><circle cx="546.5" cy="175.0" r="3.6" fill="#e03131"/>
  <text x="454" y="154" text-anchor="middle" font-size="13" fill="#212529">O</text><text x="526" y="332" text-anchor="middle" font-size="14" fill="#e03131">Q</text>
  <text x="407" y="235" text-anchor="middle" font-size="13" fill="#e03131">P₁</text><text x="562" y="183" text-anchor="middle" font-size="13" fill="#e03131">P₂</text>
  <text x="470" y="300" text-anchor="middle" font-size="15" fill="#212529">切线长定理：QP₁ = QP₂</text>
</svg>
